<?xml version="1.0" encoding="UTF-8"?>
<svg id="Layer_1" data-name="Layer 1" xmlns="http://www.w3.org/2000/svg" xmlns:xlink="http://www.w3.org/1999/xlink" viewBox="0 0 1117.82 484.75">
  <defs>
    <style>
      .cls-1 {
        fill: none;
      }

      .cls-2 {
        clip-path: url(#clippath);
      }

      .cls-3 {
        fill: #f9a34c;
      }

      .cls-4 {
        fill: #00539b;
      }

      .cls-5 {
        fill: #00aeef;
      }

      .cls-6 {
        fill: #e64097;
      }

      .cls-7 {
        fill: #f15f57;
      }

      .cls-8 {
        fill: #85478d;
      }

      .cls-9 {
        fill: #16baad;
      }
    </style>
    <clipPath id="clippath">
      <rect class="cls-1" width="1117.82" height="484.75"/>
    </clipPath>
  </defs>
  <g class="cls-2">
    <path class="cls-9" d="M286.33,240.61c0-65.52-53.31-118.82-118.83-118.82-16.89,0-33.13,3.49-48.36,10.29v19.6c1.06-.57,2.12-1.13,3.21-1.67,14.09-7.04,29.28-10.6,45.15-10.6,55.81,0,101.21,45.4,101.21,101.21s-45.4,101.21-101.21,101.21c-17.5,0-33.98-4.47-48.36-12.32v19.61c14.78,6.61,31.14,10.33,48.36,10.33,65.52,0,118.83-53.31,118.83-118.83"/>
    <path class="cls-5" d="M251.1,240.61c0-46.09-37.5-83.59-83.59-83.59-13.11,0-25.66,2.94-37.28,8.74-3.91,1.95-7.59,4.2-11.08,6.66v23.26c5.31-5.7,11.68-10.52,18.95-14.15,9.15-4.57,19.05-6.89,29.41-6.89,36.38,0,65.97,29.6,65.97,65.97s-29.6,65.97-65.97,65.97c-19.09,0-36.3-8.16-48.35-21.16v23.3c13.66,9.73,30.34,15.47,48.35,15.47,46.09,0,83.59-37.5,83.59-83.59"/>
    <path class="cls-4" d="M167.5,86.55c-16.67,0-32.86,2.6-48.35,7.73v18.74c15.39-5.86,31.59-8.86,48.35-8.86,75.24,0,136.45,61.21,136.45,136.44s-61.21,136.44-136.45,136.44c-17.02,0-33.32-3.16-48.35-8.88v18.68c15.22,5.05,31.46,7.82,48.35,7.82,84.95,0,154.06-69.11,154.06-154.06S252.45,86.55,167.5,86.55"/>
    <rect class="cls-6" x="13.44" y="94.25" width="17.62" height="373.46"/>
    <rect class="cls-8" x="83.91" y="94.25" width="17.62" height="373.46"/>
    <rect class="cls-7" x="48.68" y="94.25" width="17.62" height="373.46"/>
    <path class="cls-5" d="M947.29,240.61c0,65.52-53.31,118.82-118.83,118.82-16.89,0-33.13-3.49-48.36-10.29v-19.6c1.06,.57,2.13,1.13,3.21,1.67,14.09,7.03,29.28,10.6,45.15,10.6,55.81,0,101.21-45.4,101.21-101.21s-45.4-101.21-101.21-101.21c-17.5,0-33.98,4.47-48.36,12.32v-19.61c14.78-6.61,31.14-10.33,48.36-10.33,65.52,0,118.83,53.31,118.83,118.83"/>
    <path class="cls-6" d="M912.06,240.61c0,46.09-37.5,83.59-83.59,83.59-13.11,0-25.66-2.94-37.28-8.74-3.91-1.95-7.59-4.2-11.08-6.66v-23.26c5.31,5.7,11.68,10.52,18.95,14.15,9.16,4.57,19.05,6.89,29.41,6.89,36.38,0,65.97-29.6,65.97-65.97s-29.6-65.98-65.97-65.98c-19.09,0-36.3,8.16-48.36,21.16v-23.3c13.66-9.73,30.34-15.47,48.36-15.47,46.09,0,83.59,37.5,83.59,83.59"/>
    <path class="cls-8" d="M828.47,394.67c-16.67,0-32.86-2.6-48.35-7.73v-18.74c15.39,5.86,31.59,8.86,48.35,8.86,75.23,0,136.44-61.21,136.44-136.44s-61.21-136.44-136.44-136.44c-17.02,0-33.32,3.16-48.35,8.88v-18.68c15.22-5.05,31.46-7.82,48.35-7.82,84.95,0,154.06,69.11,154.06,154.06s-69.11,154.06-154.06,154.06"/>
    <rect class="cls-9" x="674.41" y="13.51" width="17.62" height="373.46"/>
    <rect class="cls-4" x="744.88" y="13.51" width="17.62" height="373.46"/>
    <rect class="cls-5" x="709.64" y="13.51" width="17.62" height="373.46"/>
    <rect class="cls-5" x="1005.25" y="13.51" width="17.62" height="373.46"/>
    <rect class="cls-4" x="1075.72" y="13.51" width="17.62" height="373.46"/>
    <rect class="cls-7" x="1040.49" y="13.51" width="17.62" height="373.46"/>
    <path class="cls-4" d="M497.65,157.02c-13.11,0-25.66,2.94-37.27,8.74-28.57,14.27-46.32,42.94-46.32,74.85,0,46.09,37.5,83.59,83.59,83.59s83.59-37.5,83.59-83.59-37.5-83.59-83.59-83.59m0,149.57c-36.38,0-65.97-29.6-65.97-65.97,0-25.18,14.01-47.82,36.57-59.08,9.16-4.57,19.05-6.89,29.41-6.89,36.38,0,65.98,29.6,65.98,65.97s-29.6,65.97-65.98,65.97"/>
    <path class="cls-6" d="M497.65,86.55c-24.14,0-47.27,5.44-68.76,16.17-52.62,26.27-85.3,79.11-85.3,137.89,0,84.95,69.11,154.06,154.06,154.06s154.06-69.11,154.06-154.06-69.11-154.06-154.06-154.06m0,290.5c-75.24,0-136.44-61.21-136.44-136.45,0-52.06,28.95-98.86,75.55-122.13,19.02-9.5,39.51-14.31,60.89-14.31,75.24,0,136.45,61.21,136.45,136.44s-61.21,136.45-136.45,136.45"/>
    <path class="cls-3" d="M497.65,359.44c-65.52,0-118.82-53.31-118.82-118.83,0-45.34,25.22-86.1,65.81-106.37,16.55-8.27,34.39-12.46,53.02-12.46,65.52,0,118.83,53.31,118.83,118.83s-53.31,118.83-118.83,118.83m0-220.04c-15.87,0-31.06,3.57-45.15,10.6-34.58,17.27-56.06,51.99-56.06,90.61,0,55.81,45.4,101.21,101.21,101.21s101.21-45.4,101.21-101.21-45.4-101.21-101.21-101.21"/>
  </g>
</svg>